<?xml version="1.0" encoding="utf-8"?>
<svg version="1.1" xmlns:xlink="http://www.w3.org/1999/xlink" width="19px" height="18px" xmlns="http://www.w3.org/2000/svg">
  <g transform="matrix(1 0 0 1 -16 -140 )">
    <path d="M 1.87587890625 4.51345108695652  L 9.4962890625 1.50163043478261  L 17.11484375 4.51345108695652  C 17.02763671875 4.5703125  16.94228515625 4.63084239130435  16.86064453125 5  L 2.130078125 5  C 2.0484375 4.63084239130435  1.9630859375 4.5703125  1.87587890625 4.51345108695652  Z M 18.99072265625 3.99252717391304  L 9.4962890625 0.237839673913043  L 0 3.99252717391304  L 0 5.2453125  L 0.37109375 5.2453125  C 0.779296875 5.2453125  1.1689453125 5.40489130434783  1.4658203125 5.68186141304348  L 1.46953125 5.68552989130435  C 1.60498046875 5.81025815217391  1.76083984375 5.87078804347826  1.9482421875 6  L 17.040625 6  C 17.226171875 5.87078804347826  17.3857421875 5.81025815217391  17.5193359375 5.68552989130435  L 17.523046875 5.68186141304348  C 17.819921875 5.40489130434783  18.2095703125 5.24347826086957  18.6177734375 5.24347826086957  L 18.99072265625 5.24347826086957  L 18.99072265625 3.99252717391304  Z M 18.7884765625 16.0673233695652  C 18.65302734375 15.9425951086957  18.4953125 15.8820652173913  18.30791015625 15.8820652173913  L 0.6828125 15.8820652173913  C 0.497265625 15.8820652173913  0.3376953125 15.9425951086957  0.2041015625 16.0673233695652  C 0.0667968749999999 16.1920516304348  0 16.3387907608696  0 16.509375  L 0 17.762160326087  L 18.992578125 17.762160326087  L 18.992578125 16.509375  C 18.992578125 16.3387907608696  18.92392578125 16.1920516304348  18.7884765625 16.0673233695652  Z M 14.821484375 7.37486413043478  L 15.57109375 7.37486413043478  L 15.57109375 14.3743206521739  L 14.821484375 14.3743206521739  L 14.821484375 7.37486413043478  Z M 11.02705078125 7.37486413043478  L 11.77666015625 7.37486413043478  L 11.77666015625 14.3743206521739  L 11.02705078125 14.3743206521739  L 11.02705078125 7.37486413043478  Z M 7.2251953125 7.37486413043478  L 7.9748046875 7.37486413043478  L 7.9748046875 14.3743206521739  L 7.2251953125 14.3743206521739  L 7.2251953125 7.37486413043478  Z M 3.42333984375 7.37486413043478  L 4.1748046875 7.37486413043478  L 4.1748046875 14.3743206521739  L 3.4251953125 14.3743206521739  L 3.4251953125 14.0038043478261  L 3.42333984375 7.37486413043478  Z M 16.46171875 14.0038043478261  L 16.46171875 6.49442934782609  L 13.930859375 6.49442934782609  L 13.930859375 14.0038043478261  L 12.66728515625 14.0038043478261  L 12.66728515625 6.49442934782609  L 10.13642578125 6.49442934782609  L 10.13642578125 14.0038043478261  L 8.86357421875 14.0038043478261  L 8.86357421875 6.49442934782609  L 6.3345703125 6.49442934782609  L 6.3345703125 14.0038043478261  L 5.0654296875 14.0038043478261  L 5.0654296875 6.49442934782609  L 2.53271484375 6.49442934782609  L 2.5345703125 14.0038043478261  L 1.95009765625 14.0038043478261  C 1.76455078125 14.0038043478261  1.60498046875 14.0643342391304  1.47138671875 14.1890625  C 1.33408203125 14.3137907608696  1.26728515625 14.4605298913043  1.26728515625 14.6311141304348  L 1.26728515625 15  L 17.72900390625 15  L 17.72900390625 14.6311141304348  C 17.72900390625 14.4623641304348  17.6603515625 14.3137907608696  17.52490234375 14.1890625  C 17.389453125 14.0643342391304  17.23359375 14.0038043478261  17.04619140625 14.0038043478261  L 16.46171875 14.0038043478261  Z " fill-rule="nonzero" fill="#ffffff" stroke="none" transform="matrix(1 0 0 1 16 140 )" />
  </g>
</svg>