<?xml version="1.0" encoding="utf-8"?>
<svg version="1.1" xmlns:xlink="http://www.w3.org/1999/xlink" width="21px" height="21px" xmlns="http://www.w3.org/2000/svg">
  <g transform="matrix(1 0 0 1 -50 -288 )">
    <path d="M 2.53846154882813 0.769230774414063  L 2.53846154882813 18.4615384511719  L 20.2307692255859 18.4615384511719  L 20.2307692255859 20  L 1 20  L 1 0.769230774414063  L 2.53846154882813 0.769230774414063  Z M 4.30769230078125 17.1346153759766  L 4.30769230078125 10.0576923007813  L 6.07692307519531 10.0576923007813  L 6.07692307519531 17.1346153759766  L 4.30769230078125 17.1346153759766  Z M 8.28846154882812 17.1346153759766  L 8.28846154882812 7.40384615039063  L 10.0576923007813 7.40384615039063  L 10.0576923007813 17.1346153759766  L 8.28846154882812 17.1346153759766  Z M 12.2692307744141 17.1346153759766  L 12.2692307744141 10.0576923007813  L 14.0384615488281 10.0576923007813  L 14.0384615488281 17.1346153759766  L 12.2692307744141 17.1346153759766  Z M 16 17.1346153759766  L 16 6.51923077441406  L 18 6.51923077441406  L 18 17.1346153759766  L 16 17.1346153759766  Z M 9.17307692480469 4.48638462402344  L 5.68282692480469 6.81292307519531  L 4.70134615039063 5.34092307519531  L 9.17307692480469 2.35976922558594  L 13.0764423007812 4.96186537597656  L 16.5467884511719 1.87721154882812  L 17.722 3.19971154882812  L 13.23125 7.19153845117188  L 9.17307692480469 4.48638462402344  Z " fill-rule="nonzero" fill="#ffffff" stroke="none" transform="matrix(1 0 0 1 50 288 )" />
  </g>
</svg>